<mxfile host="app.diagrams.net" modified="2023-08-17T23:28:33.856Z" agent="Mozilla/5.0 (Windows NT 10.0; Win64; x64) AppleWebKit/537.36 (KHTML, like Gecko) Chrome/116.0.0.0 Safari/537.36" version="21.6.8" etag="nuhjr8QHXakygX_GBVpP" type="github">
  <diagram name="PÃ¡gina-1" id="Sou1mkNJFZ63D4-DU_Yo">
    <mxGraphModel>
      <root>
        <mxCell id="0" />
        <mxCell id="1" parent="0" />
      </root>
    </mxGraphModel>
  </diagram>
</mxfile>
